<svg width="52" height="52" viewBox="0 0 52 52" fill="none" xmlns="http://www.w3.org/2000/svg">
<g clip-path="url(#clip0_32_19)">
<circle cx="26" cy="26" r="26" fill="#0A090C"/>
<path d="M39.9453 23.9766V37.7344C39.3828 38.375 38.5234 39.0625 37.3672 39.7969C36.2266 40.5312 34.7656 41.1641 32.9844 41.6953C31.2031 42.2109 29.0781 42.4688 26.6094 42.4688C24.375 42.4688 22.3438 42.1094 20.5156 41.3906C18.6875 40.6562 17.1172 39.5859 15.8047 38.1797C14.4922 36.7578 13.4766 35.0234 12.7578 32.9766C12.0547 30.9297 11.7031 28.5859 11.7031 25.9453V23.9297C11.7031 21.2891 12.0547 18.9453 12.7578 16.8984C13.4609 14.8516 14.4531 13.125 15.7344 11.7188C17.0156 10.2969 18.5391 9.21875 20.3047 8.48438C22.0703 7.75 24.0234 7.38281 26.1641 7.38281C29.2109 7.38281 31.7031 7.875 33.6406 8.85938C35.5781 9.82812 37.0469 11.1719 38.0469 12.8906C39.0625 14.6094 39.6875 16.5859 39.9219 18.8203H32.5625C32.4062 17.6797 32.0938 16.6953 31.625 15.8672C31.1719 15.0391 30.5234 14.4063 29.6797 13.9688C28.8359 13.5156 27.7422 13.2891 26.3984 13.2891C25.3203 13.2891 24.3438 13.5156 23.4688 13.9688C22.6094 14.4063 21.8828 15.0703 21.2891 15.9609C20.6953 16.8516 20.2422 17.9609 19.9297 19.2891C19.6172 20.6016 19.4609 22.1328 19.4609 23.8828V25.9453C19.4609 27.6953 19.6172 29.2344 19.9297 30.5625C20.2578 31.8906 20.7344 33 21.3594 33.8906C21.9844 34.7656 22.7734 35.4297 23.7266 35.8828C24.6953 36.3359 25.8203 36.5625 27.1016 36.5625C28.1016 36.5625 28.9453 36.4844 29.6328 36.3281C30.3203 36.1562 30.8828 35.9453 31.3203 35.6953C31.7578 35.4297 32.0859 35.1875 32.3047 34.9688V29.2969H26.2344V23.9766H39.9453Z" fill="white"/>
</g>
<defs>
<clipPath id="clip0_32_19">
<rect width="52" height="52" fill="white" transform="matrix(-1 0 0 1 52 0)"/>
</clipPath>
</defs>
</svg>
