<svg width="52" height="52" viewBox="0 0 52 52" fill="none" xmlns="http://www.w3.org/2000/svg">
<g clip-path="url(#clip0_32_3)">
<circle cx="26" cy="26" r="26" fill="#0A090C"/>
<path d="M31.6016 33C31.6016 32.4219 31.5156 31.9062 31.3438 31.4531C31.1719 30.9844 30.8594 30.5547 30.4062 30.1641C29.9531 29.7734 29.3125 29.3828 28.4844 28.9922C27.6562 28.5859 26.5703 28.1719 25.2266 27.75C23.6953 27.25 22.2344 26.6875 20.8438 26.0625C19.4688 25.4219 18.2422 24.6797 17.1641 23.8359C16.0859 22.9922 15.2344 22.0078 14.6094 20.8828C14 19.7578 13.6953 18.4453 13.6953 16.9453C13.6953 15.4922 14.0156 14.1797 14.6562 13.0078C15.2969 11.8359 16.1953 10.8359 17.3516 10.0078C18.5078 9.16406 19.8672 8.52344 21.4297 8.08594C22.9922 7.63281 24.7109 7.40625 26.5859 7.40625C29.0859 7.40625 31.2812 7.85156 33.1719 8.74219C35.0781 9.61719 36.5625 10.8516 37.625 12.4453C38.6875 14.0234 39.2188 15.8594 39.2188 17.9531H31.625C31.625 17.0312 31.4297 16.2188 31.0391 15.5156C30.6641 14.7969 30.0859 14.2344 29.3047 13.8281C28.5391 13.4219 27.5781 13.2188 26.4219 13.2188C25.2969 13.2188 24.3516 13.3906 23.5859 13.7344C22.8359 14.0625 22.2656 14.5156 21.875 15.0938C21.5 15.6719 21.3125 16.3047 21.3125 16.9922C21.3125 17.5391 21.4531 18.0391 21.7344 18.4922C22.0312 18.9297 22.4531 19.3438 23 19.7344C23.5625 20.1094 24.25 20.4688 25.0625 20.8125C25.875 21.1562 26.8047 21.4844 27.8516 21.7969C29.6797 22.375 31.2969 23.0156 32.7031 23.7188C34.125 24.4219 35.3203 25.2188 36.2891 26.1094C37.2578 27 37.9844 28.0078 38.4688 29.1328C38.9688 30.2578 39.2188 31.5312 39.2188 32.9531C39.2188 34.4688 38.9219 35.8125 38.3281 36.9844C37.75 38.1562 36.9062 39.1562 35.7969 39.9844C34.7031 40.7969 33.3906 41.4141 31.8594 41.8359C30.3281 42.2578 28.6172 42.4688 26.7266 42.4688C25.0078 42.4688 23.3125 42.25 21.6406 41.8125C19.9688 41.3594 18.4531 40.6719 17.0938 39.75C15.75 38.8281 14.6719 37.6562 13.8594 36.2344C13.0625 34.7969 12.6641 33.0938 12.6641 31.125H20.3047C20.3047 32.1562 20.4531 33.0312 20.75 33.75C21.0469 34.4531 21.4688 35.0234 22.0156 35.4609C22.5781 35.8984 23.2578 36.2109 24.0547 36.3984C24.8516 36.5859 25.7422 36.6797 26.7266 36.6797C27.8672 36.6797 28.7891 36.5234 29.4922 36.2109C30.2109 35.8828 30.7422 35.4375 31.0859 34.875C31.4297 34.3125 31.6016 33.6875 31.6016 33Z" fill="white"/>
</g>
<defs>
<clipPath id="clip0_32_3">
<rect width="52" height="52" fill="white" transform="matrix(-1 0 0 1 52 0)"/>
</clipPath>
</defs>
</svg>
